<?xml version="1.0" encoding="UTF-8"?>
<svg xmlns="http://www.w3.org/2000/svg" style="display:none">
  <!-- infoUzel SVG sprite -->
  <symbol id="iu-weather-radar" viewBox="0 0 24 24">
    <path d="M7 18h10a4 4 0 0 0 0-8 6 6 0 0 0-11.4-1.8A4.5 4.5 0 0 0 7 18Z" fill="none" stroke="currentColor" stroke-width="2" stroke-linecap="round" stroke-linejoin="round"/>
    <path d="M12 12.5l2.7 1.1" fill="none" stroke="currentColor" stroke-width="2" stroke-linecap="round"/>
    <path d="M12 9.5a3.5 3.5 0 1 1-3.3 4.6" fill="none" stroke="currentColor" stroke-width="2" stroke-linecap="round" stroke-linejoin="round" opacity=".9"/>
  </symbol>
  <symbol id="iu-maps-navigation" viewBox="0 0 24 24">
    <path d="M12 21s6-4.5 6-10a6 6 0 1 0-12 0c0 5.5 6 10 6 10Z" fill="none" stroke="currentColor" stroke-width="2" stroke-linejoin="round"/>
    <path d="M12 11.5a1.8 1.8 0 1 0 0-3.6 1.8 1.8 0 0 0 0 3.6Z" fill="none" stroke="currentColor" stroke-width="2"/>
    <path d="M4 20l5-2 6 2 5-2" fill="none" stroke="currentColor" stroke-width="2" stroke-linecap="round" stroke-linejoin="round" opacity=".9"/>
  </symbol>
  <symbol id="iu-timetables" viewBox="0 0 24 24">
    <path d="M7 4h10a2 2 0 0 1 2 2v12l-3-2-4 3-4-3-3 2V6a2 2 0 0 1 2-2Z" fill="none" stroke="currentColor" stroke-width="2" stroke-linejoin="round"/>
    <path d="M9 8h6M9 11h6M9 14h4" fill="none" stroke="currentColor" stroke-width="2" stroke-linecap="round"/>
  </symbol>
  <symbol id="iu-tv-program" viewBox="0 0 24 24">
    <path d="M7 3l5 5 5-5" fill="none" stroke="currentColor" stroke-width="2" stroke-linecap="round" stroke-linejoin="round"/>
    <rect x="4" y="8" width="16" height="11" rx="2.5" fill="none" stroke="currentColor" stroke-width="2"/>
    <path d="M8 12h5M8 15h8" fill="none" stroke="currentColor" stroke-width="2" stroke-linecap="round"/>
  </symbol>
  <symbol id="iu-tv-online" viewBox="0 0 24 24">
    <rect x="4" y="6" width="16" height="12" rx="2.5" fill="none" stroke="currentColor" stroke-width="2"/>
    <path d="M11 10l5 2.5-5 2.5V10Z" fill="none" stroke="currentColor" stroke-width="2" stroke-linejoin="round"/>
    <path d="M8 20h8" fill="none" stroke="currentColor" stroke-width="2" stroke-linecap="round"/>
  </symbol>
  <symbol id="iu-radio" viewBox="0 0 24 24">
    <path d="M5 10h14v8a2 2 0 0 1-2 2H7a2 2 0 0 1-2-2v-8Z" fill="none" stroke="currentColor" stroke-width="2" stroke-linejoin="round"/>
    <path d="M8 10l10-4" fill="none" stroke="currentColor" stroke-width="2" stroke-linecap="round"/>
    <path d="M8 15h4" fill="none" stroke="currentColor" stroke-width="2" stroke-linecap="round"/>
    <path d="M15.5 18a2.5 2.5 0 1 0 0-5 2.5 2.5 0 0 0 0 5Z" fill="none" stroke="currentColor" stroke-width="2"/>
  </symbol>
  <symbol id="iu-calendar" viewBox="0 0 24 24">
    <rect x="4" y="6" width="16" height="14" rx="2.5" fill="none" stroke="currentColor" stroke-width="2"/>
    <path d="M8 3v6M16 3v6M4 10h16" fill="none" stroke="currentColor" stroke-width="2" stroke-linecap="round"/>
    <path d="M8 14h4M8 17h7" fill="none" stroke="currentColor" stroke-width="2" stroke-linecap="round"/>
  </symbol>
  <symbol id="iu-day-overview" viewBox="0 0 24 24">
    <path d="M6 18h12" fill="none" stroke="currentColor" stroke-width="2" stroke-linecap="round"/>
    <path d="M8 18V9a2 2 0 0 1 2-2h4a2 2 0 0 1 2 2v9" fill="none" stroke="currentColor" stroke-width="2" stroke-linejoin="round"/>
    <path d="M10 11h4M10 14h4" fill="none" stroke="currentColor" stroke-width="2" stroke-linecap="round"/>
  </symbol>
  <symbol id="iu-news" viewBox="0 0 24 24">
    <path d="M7 6h11a2 2 0 0 1 2 2v10a3 3 0 0 1-3 3H7a3 3 0 0 1-3-3V8a2 2 0 0 1 2-2Z" fill="none" stroke="currentColor" stroke-width="2" stroke-linejoin="round"/>
    <path d="M7 9h6M7 12h10M7 15h10" fill="none" stroke="currentColor" stroke-width="2" stroke-linecap="round"/>
  </symbol>
  <symbol id="iu-sport" viewBox="0 0 24 24">
    <path d="M9 7a4 4 0 1 0 6 0" fill="none" stroke="currentColor" stroke-width="2" stroke-linecap="round"/>
    <path d="M6 16c2-2 4-3 6-3s4 1 6 3" fill="none" stroke="currentColor" stroke-width="2" stroke-linecap="round"/>
    <path d="M12 13v8" fill="none" stroke="currentColor" stroke-width="2" stroke-linecap="round"/>
  </symbol>
  <symbol id="iu-tech-internet" viewBox="0 0 24 24">
    <path d="M4 7h16v9H4V7Z" fill="none" stroke="currentColor" stroke-width="2" stroke-linejoin="round"/>
    <path d="M9 20h6" fill="none" stroke="currentColor" stroke-width="2" stroke-linecap="round"/>
    <path d="M8 12l2-2 2 2 4-4" fill="none" stroke="currentColor" stroke-width="2" stroke-linecap="round" stroke-linejoin="round"/>
  </symbol>
  <symbol id="iu-finance" viewBox="0 0 24 24">
    <path d="M4 18V6" fill="none" stroke="currentColor" stroke-width="2" stroke-linecap="round"/>
    <path d="M20 18H4" fill="none" stroke="currentColor" stroke-width="2" stroke-linecap="round"/>
    <path d="M7 15l3-4 3 2 4-6" fill="none" stroke="currentColor" stroke-width="2" stroke-linecap="round" stroke-linejoin="round"/>
    <path d="M17 7h3v3" fill="none" stroke="currentColor" stroke-width="2" stroke-linecap="round" stroke-linejoin="round"/>
  </symbol>
  <symbol id="iu-home-hobby" viewBox="0 0 24 24">
    <path d="M5 11l7-6 7 6v9a2 2 0 0 1-2 2H7a2 2 0 0 1-2-2v-9Z" fill="none" stroke="currentColor" stroke-width="2" stroke-linejoin="round"/>
    <path d="M10 22v-6h4v6" fill="none" stroke="currentColor" stroke-width="2" stroke-linejoin="round"/>
    <path d="M17 4l3 3" fill="none" stroke="currentColor" stroke-width="2" stroke-linecap="round"/>
  </symbol>
  <symbol id="iu-health" viewBox="0 0 24 24">
    <path d="M12 21s-7-4.7-7-10.5C5 7.5 6.9 6 9 6c1.3 0 2.5.7 3 1.7C12.5 6.7 13.7 6 15 6c2.1 0 4 1.5 4 4.5C19 16.3 12 21 12 21Z" fill="none" stroke="currentColor" stroke-width="2" stroke-linejoin="round"/>
    <path d="M8.5 12h2l1-2 1.2 4 1-2H16" fill="none" stroke="currentColor" stroke-width="2" stroke-linecap="round" stroke-linejoin="round"/>
  </symbol>
  <symbol id="iu-travel" viewBox="0 0 24 24">
    <path d="M12 22s6-6 6-11a6 6 0 1 0-12 0c0 5 6 11 6 11Z" fill="none" stroke="currentColor" stroke-width="2" stroke-linejoin="round"/>
    <path d="M12 11l4-2-4-2-4 2 4 2Z" fill="none" stroke="currentColor" stroke-width="2" stroke-linejoin="round"/>
    <path d="M12 11v4" fill="none" stroke="currentColor" stroke-width="2" stroke-linecap="round"/>
  </symbol>
  <symbol id="iu-fun-engagement" viewBox="0 0 24 24">
    <path d="M7 20l2-6-5-4h6l2-6 2 6h6l-5 4 2 6-5-3-5 3Z" fill="none" stroke="currentColor" stroke-width="2" stroke-linejoin="round"/>
  </symbol>
  <symbol id="iu-games" viewBox="0 0 24 24">
    <path d="M7 10h10a4 4 0 0 1 4 4v3a3 3 0 0 1-3 3h-2l-2-2H10l-2 2H6a3 3 0 0 1-3-3v-3a4 4 0 0 1 4-4Z" fill="none" stroke="currentColor" stroke-width="2" stroke-linejoin="round"/>
    <path d="M8 14h3M9.5 12.5v3" fill="none" stroke="currentColor" stroke-width="2" stroke-linecap="round"/>
    <path d="M16.5 13.5h.01M18 15h.01" fill="none" stroke="currentColor" stroke-width="3" stroke-linecap="round"/>
  </symbol>
  <symbol id="iu-culture-events" viewBox="0 0 24 24">
    <path d="M6 8h12v10a2 2 0 0 1-2 2H8a2 2 0 0 1-2-2V8Z" fill="none" stroke="currentColor" stroke-width="2" stroke-linejoin="round"/>
    <path d="M8 8V6a2 2 0 0 1 2-2h1" fill="none" stroke="currentColor" stroke-width="2" stroke-linecap="round"/>
    <path d="M13 4h1a2 2 0 0 1 2 2v2" fill="none" stroke="currentColor" stroke-width="2" stroke-linecap="round"/>
    <path d="M9 12h6M9 15h6" fill="none" stroke="currentColor" stroke-width="2" stroke-linecap="round"/>
  </symbol>
  <symbol id="iu-science-history" viewBox="0 0 24 24">
    <path d="M10 2h4" fill="none" stroke="currentColor" stroke-width="2" stroke-linecap="round"/>
    <path d="M10 2v5l-4 7a6 6 0 0 0 5 9h2a6 6 0 0 0 5-9l-4-7V2" fill="none" stroke="currentColor" stroke-width="2" stroke-linejoin="round"/>
    <path d="M8 14h8" fill="none" stroke="currentColor" stroke-width="2" stroke-linecap="round" opacity=".9"/>
  </symbol>
  <symbol id="iu-education" viewBox="0 0 24 24">
    <path d="M3 8l9-4 9 4-9 4-9-4Z" fill="none" stroke="currentColor" stroke-width="2" stroke-linejoin="round"/>
    <path d="M7 10v6c0 1.5 2.2 3 5 3s5-1.5 5-3v-6" fill="none" stroke="currentColor" stroke-width="2" stroke-linejoin="round"/>
    <path d="M21 8v6" fill="none" stroke="currentColor" stroke-width="2" stroke-linecap="round"/>
  </symbol>
  <symbol id="iu-aff-suitcase" viewBox="0 0 24 24">
    <rect x="6" y="8" width="12" height="11" rx="2" fill="none" stroke="currentColor" stroke-width="2"/>
    <path d="M9 8V6a3 3 0 0 1 6 0v2" fill="none" stroke="currentColor" stroke-width="2" stroke-linecap="round"/>
    <path d="M6 13h12" fill="none" stroke="currentColor" stroke-width="2" stroke-linecap="round"/>
  </symbol>
  <symbol id="iu-aff-hotel" viewBox="0 0 24 24">
    <path d="M4 20V8l8-4 8 4v12" fill="none" stroke="currentColor" stroke-width="2" stroke-linejoin="round"/>
    <path d="M9 20v-6h6v6" fill="none" stroke="currentColor" stroke-width="2" stroke-linejoin="round"/>
    <path d="M9 10h.01M15 10h.01" fill="none" stroke="currentColor" stroke-width="3" stroke-linecap="round"/>
  </symbol>
  <symbol id="iu-aff-plane" viewBox="0 0 24 24">
    <path d="M3 12h18" fill="none" stroke="currentColor" stroke-width="2" stroke-linecap="round"/>
    <path d="M12 3l3 9-3 9-3-9 3-9Z" fill="none" stroke="currentColor" stroke-width="2" stroke-linejoin="round"/>
    <path d="M15 12h6" fill="none" stroke="currentColor" stroke-width="2" stroke-linecap="round"/>
  </symbol>
  <symbol id="iu-aff-shield" viewBox="0 0 24 24">
    <path d="M12 3l7 3v6c0 5-3.5 8.5-7 9-3.5-.5-7-4-7-9V6l7-3Z" fill="none" stroke="currentColor" stroke-width="2" stroke-linejoin="round"/>
    <path d="M9 12l2 2 4-4" fill="none" stroke="currentColor" stroke-width="2" stroke-linecap="round" stroke-linejoin="round"/>
  </symbol>
  <symbol id="iu-aff-car" viewBox="0 0 24 24">
    <path d="M5 16l1.5-5h11L19 16" fill="none" stroke="currentColor" stroke-width="2" stroke-linejoin="round"/>
    <path d="M4 16h16v3H4z" fill="none" stroke="currentColor" stroke-width="2" stroke-linejoin="round"/>
    <circle cx="7.5" cy="19" r="1.5" fill="none" stroke="currentColor" stroke-width="2"/>
    <circle cx="16.5" cy="19" r="1.5" fill="none" stroke="currentColor" stroke-width="2"/>
  </symbol>
  <symbol id="iu-aff-bulb" viewBox="0 0 24 24">
    <path d="M9 18h6" fill="none" stroke="currentColor" stroke-width="2" stroke-linecap="round"/>
    <path d="M10 21h4" fill="none" stroke="currentColor" stroke-width="2" stroke-linecap="round"/>
    <path d="M12 3a6 6 0 0 1 4 10.5c-.6.5-1 1.2-1 2h-6c0-.8-.4-1.5-1-2A6 6 0 0 1 12 3Z" fill="none" stroke="currentColor" stroke-width="2" stroke-linejoin="round"/>
  </symbol>
  <symbol id="iu-aff-cross" viewBox="0 0 24 24">
    <path d="M12 6v12M6 12h12" fill="none" stroke="currentColor" stroke-width="2.5" stroke-linecap="round"/>
    <circle cx="12" cy="12" r="9" fill="none" stroke="currentColor" stroke-width="2"/>
  </symbol>
  <symbol id="iu-aff-perfume" viewBox="0 0 24 24">
    <path d="M10 3h4v3h-4z" fill="none" stroke="currentColor" stroke-width="2"/>
    <path d="M9 6h6v14a2 2 0 0 1-2 2h-2a2 2 0 0 1-2-2V6Z" fill="none" stroke="currentColor" stroke-width="2" stroke-linejoin="round"/>
    <path d="M12 10v4" fill="none" stroke="currentColor" stroke-width="2" stroke-linecap="round"/>
  </symbol>
  <symbol id="iu-aff-bottle" viewBox="0 0 24 24">
    <path d="M10 3h4v3h-4z" fill="none" stroke="currentColor" stroke-width="2"/>
    <path d="M9 6h6l-1 14a2 2 0 0 1-2 2h0a2 2 0 0 1-2-2L9 6Z" fill="none" stroke="currentColor" stroke-width="2" stroke-linejoin="round"/>
  </symbol>
  <symbol id="iu-aff-shirt" viewBox="0 0 24 24">
    <path d="M8 4l-3 3 2 2v11h10V9l2-2-3-3-2 2h-4L8 4Z" fill="none" stroke="currentColor" stroke-width="2" stroke-linejoin="round"/>
  </symbol>
  <symbol id="iu-aff-shoe" viewBox="0 0 24 24">
    <path d="M4 15c2-2 4-3 7-3h5l3 3v2H4v-2Z" fill="none" stroke="currentColor" stroke-width="2" stroke-linejoin="round"/>
    <path d="M7 12V9a2 2 0 0 1 2-2h2" fill="none" stroke="currentColor" stroke-width="2" stroke-linecap="round"/>
  </symbol>
  <symbol id="iu-aff-jersey" viewBox="0 0 24 24">
    <path d="M8 5l-2 3 2 2v10h8V10l2-2-2-3-4 2-4-2Z" fill="none" stroke="currentColor" stroke-width="2" stroke-linejoin="round"/>
    <path d="M12 10v6" fill="none" stroke="currentColor" stroke-width="2" stroke-linecap="round"/>
  </symbol>
  <symbol id="iu-aff-tent" viewBox="0 0 24 24">
    <path d="M4 20h16L12 4 4 20Z" fill="none" stroke="currentColor" stroke-width="2" stroke-linejoin="round"/>
    <path d="M12 4v16" fill="none" stroke="currentColor" stroke-width="2"/>
  </symbol>
  <symbol id="iu-aff-chair" viewBox="0 0 24 24">
    <path d="M7 10h10v6a2 2 0 0 1-2 2H9a2 2 0 0 1-2-2v-6Z" fill="none" stroke="currentColor" stroke-width="2" stroke-linejoin="round"/>
    <path d="M9 18v3M15 18v3" fill="none" stroke="currentColor" stroke-width="2" stroke-linecap="round"/>
    <path d="M7 10V8a2 2 0 0 1 2-2h6a2 2 0 0 1 2 2v2" fill="none" stroke="currentColor" stroke-width="2"/>
  </symbol>
  <symbol id="iu-aff-pot" viewBox="0 0 24 24">
    <path d="M6 10h12v8a2 2 0 0 1-2 2H8a2 2 0 0 1-2-2v-8Z" fill="none" stroke="currentColor" stroke-width="2" stroke-linejoin="round"/>
    <path d="M9 6h6v4H9V6Z" fill="none" stroke="currentColor" stroke-width="2"/>
    <path d="M5 10h14" fill="none" stroke="currentColor" stroke-width="2" stroke-linecap="round"/>
  </symbol>
  <symbol id="iu-aff-plug" viewBox="0 0 24 24">
    <path d="M9 3v4M15 3v4" fill="none" stroke="currentColor" stroke-width="2" stroke-linecap="round"/>
    <path d="M8 7h8v6a4 4 0 0 1-8 0V7Z" fill="none" stroke="currentColor" stroke-width="2" stroke-linejoin="round"/>
    <path d="M12 17v4" fill="none" stroke="currentColor" stroke-width="2" stroke-linecap="round"/>
  </symbol>
  <symbol id="iu-aff-phone" viewBox="0 0 24 24">
    <rect x="7" y="3" width="10" height="18" rx="2" fill="none" stroke="currentColor" stroke-width="2"/>
    <path d="M11 18h2" fill="none" stroke="currentColor" stroke-width="2" stroke-linecap="round"/>
  </symbol>
  <symbol id="iu-aff-lock" viewBox="0 0 24 24">
    <rect x="6" y="11" width="12" height="9" rx="2" fill="none" stroke="currentColor" stroke-width="2"/>
    <path d="M8 11V8a4 4 0 1 1 8 0v3" fill="none" stroke="currentColor" stroke-width="2" stroke-linecap="round"/>
  </symbol>
  <symbol id="iu-aff-book" viewBox="0 0 24 24">
    <path d="M5 5h7a3 3 0 0 1 3 3v13H8a3 3 0 0 1-3-3V5Z" fill="none" stroke="currentColor" stroke-width="2" stroke-linejoin="round"/>
    <path d="M19 5h-7a3 3 0 0 0-3 3v13h7a3 3 0 0 0 3-3V5Z" fill="none" stroke="currentColor" stroke-width="2" stroke-linejoin="round"/>
  </symbol>
  <symbol id="iu-aff-cart" viewBox="0 0 24 24">
    <path d="M6 6h15l-2 9H8L6 6Z" fill="none" stroke="currentColor" stroke-width="2" stroke-linejoin="round"/>
    <circle cx="10" cy="19" r="1.5" fill="none" stroke="currentColor" stroke-width="2"/>
    <circle cx="17" cy="19" r="1.5" fill="none" stroke="currentColor" stroke-width="2"/>
    <path d="M6 6L5 3H2" fill="none" stroke="currentColor" stroke-width="2" stroke-linecap="round"/>
  </symbol>
  <symbol id="iu-aff-paw" viewBox="0 0 24 24">
    <ellipse cx="8" cy="9" rx="1.8" ry="2.2" fill="none" stroke="currentColor" stroke-width="2"/>
    <ellipse cx="12" cy="7" rx="1.8" ry="2.2" fill="none" stroke="currentColor" stroke-width="2"/>
    <ellipse cx="16" cy="9" rx="1.8" ry="2.2" fill="none" stroke="currentColor" stroke-width="2"/>
    <path d="M7 13c1.5 3 3.5 4.5 5 4.5s3.5-1.5 5-4.5" fill="none" stroke="currentColor" stroke-width="2" stroke-linecap="round"/>
  </symbol>
</svg>
